<svg xmlns="http://www.w3.org/2000/svg" id="united-states" width="34" height="34" viewBox="0 0 34 34">
	<ellipse id="Elipse_9" data-name="Elipse 9" cx="17" cy="17" rx="17" ry="17" fill="#f0f0f0"/>
	<g id="Grupo_451" data-name="Grupo 451" transform="translate(0.577 3.642)">
	  <path id="Caminho_154" data-name="Caminho 154" d="M244.87,193.587h17.482a16.772,16.772,0,0,0-.577-4.37h-16.9Z" transform="translate(-228.929 -180.307)" fill="#d80027"/>
	  <path id="Caminho_155" data-name="Caminho 155" d="M244.87,60.022h15.023a16.841,16.841,0,0,0-3.866-4.37H244.87Z" transform="translate(-228.929 -55.652)" fill="#d80027"/>
	  <path id="Caminho_156" data-name="Caminho 156" d="M107.319,459.99a17.33,17.33,0,0,0,10.675-3.642H96.644A17.33,17.33,0,0,0,107.319,459.99Z" transform="translate(-90.896 -429.632)" fill="#d80027"/>
	  <path id="Caminho_157" data-name="Caminho 157" d="M10.73,327.152H39.754a16.523,16.523,0,0,0,1.911-4.37H8.819A16.523,16.523,0,0,0,10.73,327.152Z" transform="translate(-8.819 -304.962)" fill="#d80027"/>
	</g>
	<path id="Caminho_158" data-name="Caminho 158" d="M7.761,2.616H9.287L7.867,3.648,8.41,5.317,6.99,4.286,5.569,5.317l.469-1.442A16.846,16.846,0,0,0,2.789,7.5h.489l-.9.657q-.211.352-.405.716L2.4,10.2l-.805-.585q-.3.636-.548,1.3l.476,1.464H3.278l-1.42,1.032L2.4,15.078.98,14.046l-.851.618A16.915,16.915,0,0,0,0,16.753H16.753V0A16.674,16.674,0,0,0,7.761,2.616ZM8.41,15.078,6.99,14.046l-1.42,1.032.542-1.669-1.42-1.032H6.447l.542-1.669.542,1.669H9.287l-1.42,1.032Zm-.542-6.55L8.41,10.2,6.99,9.166,5.569,10.2l.542-1.669L4.692,7.5H6.447L6.99,5.827,7.532,7.5H9.287Zm6.552,6.55L13,14.046l-1.42,1.032.542-1.669L10.7,12.377h1.755L13,10.708l.542,1.669H15.3l-1.42,1.032Zm-.542-6.55.542,1.669L13,9.166,11.579,10.2l.542-1.669L10.7,7.5h1.755L13,5.827,13.541,7.5H15.3Zm0-4.88.542,1.669L13,4.286l-1.42,1.032.542-1.669L10.7,2.616h1.755L13,.947l.542,1.669H15.3Z" fill="#0052b4"/>
  </svg>