<svg width="40" height="48" viewBox="0 0 40 48" fill="none" xmlns="http://www.w3.org/2000/svg">
<g filter="url(#filter0_d_49_478)">
<path fill-rule="evenodd" clip-rule="evenodd" d="M27.3958 23.6529C27.3524 23.9311 27.2466 24.1959 27.0863 24.4275C26.926 24.659 26.7154 24.8512 26.4703 24.9898C25.9766 25.3086 25.5447 25.468 25.1077 25.6274C24.177 25.9488 23.1974 26.2702 22.1613 26.643C21.0687 27.0157 20.0891 27.3885 19.215 27.6585C18.1249 28.0313 17.0888 28.3526 16.1041 28.7254C15.3633 29.0425 14.6674 29.4556 14.0345 29.9544C13.4458 30.4877 12.9321 31.0983 12.5073 31.7695C12.0703 32.515 11.7952 33.4766 11.7952 34.5975C11.7952 36.842 12.3402 38.5491 13.4329 39.6161C14.523 40.7396 16.5438 41.2718 19.5389 41.2718C22.5933 41.2718 24.6655 40.6856 25.7607 39.5107C26.8482 38.3357 27.3932 36.6826 27.3932 34.5487V23.6529H27.3958ZM19.5415 0C24.8891 0 28.815 1.01553 31.3217 3.09802C33.831 5.12908 35.0856 7.74119 35.0856 10.8366V37.2148C35.0856 38.2817 34.8696 39.4567 34.4891 40.737C34.1035 42.0225 33.3425 43.1949 32.1418 44.2592C30.9977 45.3313 29.4166 46.2389 27.3984 46.933C25.3802 47.6272 22.7629 48 19.5441 48C16.3304 48 13.708 47.6272 11.6923 46.933C9.6767 46.2389 8.09298 45.3313 6.9489 44.2592C5.8846 43.3001 5.07834 42.089 4.60418 40.737C4.21853 39.4592 4 38.2843 4 37.2174V33.001C4 30.7565 4.59904 28.674 5.79968 26.8563C7.00032 24.9898 8.68945 23.7095 10.8722 22.9073C11.9623 22.5345 13.2169 22.1618 14.6335 21.681C16.0527 21.1976 17.3588 20.7169 18.6699 20.2927C19.9811 19.8633 21.1252 19.434 22.1048 19.0586C22.6959 18.8221 23.2963 18.6094 23.9044 18.421L24.8866 17.9402C25.2722 17.7268 25.6501 17.4055 26.0332 16.9787C26.4137 16.5545 26.7402 16.0737 27.0153 15.5389C27.306 14.9599 27.4557 14.3203 27.4524 13.6724V11.9627C27.4564 11.3361 27.3249 10.716 27.0667 10.145C26.8508 9.5023 26.4137 8.91612 25.8147 8.38393C25.2156 7.84917 24.3955 7.42239 23.416 7.09845C22.4338 6.78222 21.1278 6.62025 19.6521 6.62025C16.5977 6.62025 14.5795 7.21157 13.4894 8.43535C12.5639 9.50488 12.0189 10.8392 11.9109 12.3329C11.9109 12.6543 11.6383 12.8677 11.3093 12.8677L4.65817 12.9757C4.50018 12.9764 4.34831 12.9146 4.23563 12.8039C4.12296 12.6931 4.05859 12.5423 4.05656 12.3844V10.8418C4.05656 9.3429 4.33165 7.95458 4.93069 6.62025C5.5323 5.28334 6.46042 4.16497 7.71248 3.20086C8.96711 2.24189 10.6048 1.44231 12.5665 0.907552C14.4767 0.26481 16.8214 0 19.5466 0H19.5415Z" fill="#0A3871"/>
<path d="M27.8932 34.5487V23.7082L27.9799 23.1529H27.3958H27.3932H26.8932V23.6247C26.8573 23.8105 26.7831 23.987 26.6752 24.1428C26.5578 24.3123 26.4037 24.4531 26.2242 24.5546L26.2114 24.5618L26.199 24.5698C25.7579 24.8547 25.3735 24.9982 24.9404 25.1562C24.6308 25.2631 24.313 25.3709 23.9881 25.4812C23.3493 25.6979 22.6828 25.924 21.9959 26.1711C21.5667 26.3175 21.1629 26.461 20.7792 26.5974C20.1643 26.8158 19.601 27.016 19.0675 27.1807L19.0603 27.183L19.0532 27.1854C18.705 27.3045 18.3578 27.4197 18.0136 27.534C17.2993 27.7711 16.5979 28.0039 15.9271 28.2578L15.9172 28.2616L15.9074 28.2658C15.1262 28.6 14.3925 29.0357 13.725 29.5616L13.7115 29.5723L13.6988 29.5838C13.0767 30.1474 12.5338 30.7927 12.0848 31.5021L12.0803 31.5093L12.076 31.5166C11.5905 32.3449 11.2952 33.3949 11.2952 34.5975C11.2952 36.9062 11.8537 38.7694 13.0788 39.9692C14.3217 41.2457 16.5275 41.7718 19.5389 41.7718C22.6194 41.7718 24.8805 41.1882 26.1264 39.8516L26.1276 39.8503C27.3257 38.5559 27.8932 36.7661 27.8932 34.5487ZM31.0022 3.48261L31.0022 3.48264L31.0071 3.48666C33.4027 5.42573 34.5856 7.89669 34.5856 10.8366V37.2148C34.5856 38.217 34.3823 39.3414 34.0099 40.5943C33.6541 41.7798 32.9497 42.8749 31.8101 43.8851L31.81 43.8849L31.7999 43.8944C30.7199 44.9065 29.2057 45.7827 27.2358 46.4602C25.2868 47.1306 22.7289 47.5 19.5441 47.5C16.3643 47.5 13.8014 47.1305 11.8551 46.4603C9.88747 45.7826 8.37077 44.9064 7.29079 43.8944L7.29086 43.8943L7.28362 43.8878C6.28427 42.9872 5.52656 41.8506 5.07964 40.5819C4.70446 39.3363 4.5 38.216 4.5 37.2174V33.001C4.5 30.8487 5.07334 28.8631 6.21688 27.1319L6.21691 27.1319L6.22019 27.1268C7.35458 25.3633 8.94956 24.1476 11.0394 23.3786C11.5584 23.2012 12.116 23.0234 12.7177 22.8316L12.7823 22.811C13.4091 22.6112 14.081 22.3965 14.7942 22.1545L14.7947 22.1543C15.3563 21.963 15.8942 21.7743 16.4194 21.5901C17.2384 21.3028 18.0262 21.0265 18.8239 20.7684L18.8255 20.7678C20.1485 20.3346 21.3016 19.9018 22.2837 19.5255L22.2837 19.5255L22.2905 19.5228C22.8692 19.2913 23.457 19.083 24.0524 18.8986L24.0894 18.8871L24.1243 18.8701L25.1064 18.3893L25.1177 18.3838L25.1286 18.3777C25.5779 18.1291 25.9982 17.7662 26.4053 17.3127L26.4054 17.3125C26.8166 16.8541 27.1669 16.3374 27.4599 15.7677L27.46 15.7677L27.4622 15.7632C27.788 15.1141 27.9559 14.3973 27.9524 13.671V11.9644C27.9566 11.2745 27.8134 10.5917 27.5325 9.96175C27.2782 9.22249 26.7823 8.57477 26.1468 8.01022C25.4805 7.4156 24.5924 6.96088 23.573 6.62373L23.573 6.62372L23.5692 6.62251C22.5201 6.2847 21.1575 6.12025 19.6521 6.12025C16.5687 6.12025 14.3568 6.70995 13.1161 8.10278L13.1161 8.10275L13.1114 8.10816C12.112 9.26297 11.5276 10.7007 11.4122 12.2969L11.4109 12.3149V12.3329C11.4109 12.3358 11.4107 12.3377 11.4105 12.3389C11.41 12.3394 11.4093 12.3401 11.4084 12.341C11.3995 12.3486 11.3682 12.3677 11.3093 12.3677V12.3676L11.3011 12.3678L4.65426 12.4757C4.62876 12.4753 4.60434 12.4652 4.58613 12.4473L4.23563 12.8039L4.58612 12.4473C4.56794 12.4294 4.55737 12.4052 4.55656 12.3798V10.8418C4.55656 9.40743 4.81909 8.0898 5.38665 6.82543C5.94981 5.57397 6.82103 4.5185 8.01681 3.59757C9.21236 2.68393 10.789 1.91035 12.698 1.38995L12.7121 1.38611L12.7259 1.38145C14.5631 0.763294 16.8462 0.500167 19.5441 0.5C24.8457 0.500327 28.6287 1.51081 31.0022 3.48261Z" stroke="black"/>
</g>
<defs>
<filter id="filter0_d_49_478" x="0" y="0" width="39.0857" height="56" filterUnits="userSpaceOnUse" color-interpolation-filters="sRGB">
<feFlood flood-opacity="0" result="BackgroundImageFix"/>
<feColorMatrix in="SourceAlpha" type="matrix" values="0 0 0 0 0 0 0 0 0 0 0 0 0 0 0 0 0 0 127 0" result="hardAlpha"/>
<feOffset dy="4"/>
<feGaussianBlur stdDeviation="2"/>
<feComposite in2="hardAlpha" operator="out"/>
<feColorMatrix type="matrix" values="0 0 0 0 0 0 0 0 0 0 0 0 0 0 0 0 0 0 0.25 0"/>
<feBlend mode="normal" in2="BackgroundImageFix" result="effect1_dropShadow_49_478"/>
<feBlend mode="normal" in="SourceGraphic" in2="effect1_dropShadow_49_478" result="shape"/>
</filter>
</defs>
</svg>
